<?xml version="1.0" encoding="UTF-8" standalone="no"?> 
<svg width="340" height="340" version="1.1" viewBox="0 0 340 340" xmlns="http://www.w3.org/2000/svg">  

<g transform="translate(10,10) scale(40)">
<g fill="white" stroke="gray" stroke-width="0.025">
 <rect x="0" y="0" width="8" height="8" />

 <rect x="0" y="0" width="1" height="1" fill="black" />
 <rect x="0" y="1" width="1" height="1" fill="white" />
 <rect x="0" y="2" width="1" height="1" fill="black" />
 <rect x="0" y="3" width="1" height="1" fill="white" />
 <rect x="0" y="4" width="1" height="1" fill="black" />
 <rect x="0" y="5" width="1" height="1" fill="white" />
 <rect x="0" y="6" width="1" height="1" fill="black" />
 <rect x="0" y="7" width="1" height="1" fill="white" />
 <rect x="1" y="0" width="1" height="1" fill="white" />
 <rect x="1" y="1" width="1" height="1" fill="black" />
 <rect x="1" y="2" width="1" height="1" fill="white" />
 <rect x="1" y="3" width="1" height="1" fill="black" />
 <rect x="1" y="4" width="1" height="1" fill="white" />
 <rect x="1" y="5" width="1" height="1" fill="black" />
 <rect x="1" y="6" width="1" height="1" fill="white" />
 <rect x="1" y="7" width="1" height="1" fill="black" />
 <rect x="2" y="0" width="1" height="1" fill="black" />
 <rect x="2" y="1" width="1" height="1" fill="white" />
 <rect x="2" y="2" width="1" height="1" fill="black" />
 <rect x="2" y="3" width="1" height="1" fill="white" />
 <rect x="2" y="4" width="1" height="1" fill="black" />
 <rect x="2" y="5" width="1" height="1" fill="white" />
 <rect x="2" y="6" width="1" height="1" fill="black" />
 <rect x="2" y="7" width="1" height="1" fill="white" />
 <rect x="3" y="0" width="1" height="1" fill="white" />
 <rect x="3" y="1" width="1" height="1" fill="black" />
 <rect x="3" y="2" width="1" height="1" fill="white" />
 <rect x="3" y="3" width="1" height="1" fill="black" />
 <rect x="3" y="4" width="1" height="1" fill="white" />
 <rect x="3" y="5" width="1" height="1" fill="black" />
 <rect x="3" y="6" width="1" height="1" fill="white" />
 <rect x="3" y="7" width="1" height="1" fill="black" />
 <rect x="4" y="0" width="1" height="1" fill="black" />
 <rect x="4" y="1" width="1" height="1" fill="white" />
 <rect x="4" y="2" width="1" height="1" fill="black" />
 <rect x="4" y="3" width="1" height="1" fill="white" />
 <rect x="4" y="4" width="1" height="1" fill="black" />
 <rect x="4" y="5" width="1" height="1" fill="white" />
 <rect x="4" y="6" width="1" height="1" fill="black" />
 <rect x="4" y="7" width="1" height="1" fill="white" />
 <rect x="5" y="0" width="1" height="1" fill="white" />
 <rect x="5" y="1" width="1" height="1" fill="black" />
 <rect x="5" y="2" width="1" height="1" fill="white" />
 <rect x="5" y="3" width="1" height="1" fill="black" />
 <rect x="5" y="4" width="1" height="1" fill="white" />
 <rect x="5" y="5" width="1" height="1" fill="black" />
 <rect x="5" y="6" width="1" height="1" fill="white" />
 <rect x="5" y="7" width="1" height="1" fill="black" />
 <rect x="6" y="0" width="1" height="1" fill="black" />
 <rect x="6" y="1" width="1" height="1" fill="white" />
 <rect x="6" y="2" width="1" height="1" fill="black" />
 <rect x="6" y="3" width="1" height="1" fill="white" />
 <rect x="6" y="4" width="1" height="1" fill="black" />
 <rect x="6" y="5" width="1" height="1" fill="white" />
 <rect x="6" y="6" width="1" height="1" fill="black" />
 <rect x="6" y="7" width="1" height="1" fill="white" />
 <rect x="7" y="0" width="1" height="1" fill="white" />
 <rect x="7" y="1" width="1" height="1" fill="black" />
 <rect x="7" y="2" width="1" height="1" fill="white" />
 <rect x="7" y="3" width="1" height="1" fill="black" />
 <rect x="7" y="4" width="1" height="1" fill="white" />
 <rect x="7" y="5" width="1" height="1" fill="black" />
 <rect x="7" y="6" width="1" height="1" fill="white" />
 <rect x="7" y="7" width="1" height="1" fill="black" />

<line x1="0" x2="8" y1="1" y2="1" />
<line x1="0" x2="8" y1="2" y2="2" />
<line x1="0" x2="8" y1="3" y2="3" />
<line x1="0" x2="8" y1="4" y2="4" />
<line x1="0" x2="8" y1="5" y2="5" />
<line x1="0" x2="8" y1="6" y2="6" />
<line x1="0" x2="8" y1="7" y2="7" />

 <line y1="0" y2="8" x1="1" x2="1" />
 <line y1="0" y2="8" x1="2" x2="2" />
 <line y1="0" y2="8" x1="3" x2="3" />
 <line y1="0" y2="8" x1="4" x2="4" />
 <line y1="0" y2="8" x1="5" x2="5" />
 <line y1="0" y2="8" x1="6" x2="6" />
 <line y1="0" y2="8" x1="7" x2="7" />
 </g>

 <g transform="translate(0.5,0.5)">

 <circle cx="4" cy="0" r="0.1" stroke="none" fill="red" />

 <text id="eins" x="4" y="0" style="font-size:0.3px; font-family:Arial" fill="red" transform="translate(-0.3,0.1)">
S
</text>

<circle cx="4" cy="3" r="0.1" stroke="none" fill="green" />
<text id="eins" x="4" y="3" style="font-size:0.3px; font-family:Arial" fill="green" transform="translate(-0.3,0.1)">
E
</text>

<polyline points="4,0 6,1 7,3 5,2 4,4 6,5 7,7 5,6 3,7 1,6 0,4 2,5 3,3 1,2 0,0 2,1 1,3 0,1 2,0 3,2 2,4 0,5 1,7 3,6 5,7 7,6 6,4 4,5 5,3 7,2 6,0 4,1 2,2 3,0 1,1 0,3 1,5 0,7 2,6 3,4 5,5 4,7 6,6 7,4 6,2 7,0 5,1 6,3 7,1 5,0 4,2 5,4 7,5 6,7 4,6 2,7 0,6 1,4 3,5 2,3 0,2 1,0 3,1 4,3" stroke="blue" stroke-width="0.05" fill="none" />

</g>
</g>
</svg>
