<?xml version="1.0" encoding="UTF-8" standalone="no"?> 
<svg width="340" height="340" version="1.1" viewBox="0 0 340 340" xmlns="http://www.w3.org/2000/svg">  

<g transform="translate(10,10) scale(40)">
<g fill="white" stroke="gray" stroke-width="0.025">
 <rect x="0" y="0" width="8" height="8" />

<rect x="0" y="0" width="1" height="1" fill="black" />
<rect x="0" y="1" width="1" height="1" fill="white" />
<rect x="0" y="2" width="1" height="1" fill="black" />
<rect x="0" y="3" width="1" height="1" fill="white" />
<rect x="0" y="4" width="1" height="1" fill="black" />
<rect x="0" y="5" width="1" height="1" fill="white" />
<rect x="0" y="6" width="1" height="1" fill="black" />
<rect x="0" y="7" width="1" height="1" fill="white" />
<rect x="1" y="0" width="1" height="1" fill="white" />
<rect x="1" y="1" width="1" height="1" fill="black" />
<rect x="1" y="2" width="1" height="1" fill="white" />
<rect x="1" y="3" width="1" height="1" fill="black" />
<rect x="1" y="4" width="1" height="1" fill="white" />
<rect x="1" y="5" width="1" height="1" fill="black" />
<rect x="1" y="6" width="1" height="1" fill="white" />
<rect x="1" y="7" width="1" height="1" fill="black" />
<rect x="2" y="0" width="1" height="1" fill="black" />
<rect x="2" y="1" width="1" height="1" fill="white" />
<rect x="2" y="2" width="1" height="1" fill="black" />
<rect x="2" y="3" width="1" height="1" fill="white" />
<rect x="2" y="4" width="1" height="1" fill="black" />
<rect x="2" y="5" width="1" height="1" fill="white" />
<rect x="2" y="6" width="1" height="1" fill="black" />
<rect x="2" y="7" width="1" height="1" fill="white" />
<rect x="3" y="0" width="1" height="1" fill="white" />
<rect x="3" y="1" width="1" height="1" fill="black" />
<rect x="3" y="2" width="1" height="1" fill="white" />
<rect x="3" y="3" width="1" height="1" fill="black" />
<rect x="3" y="4" width="1" height="1" fill="white" />
<rect x="3" y="5" width="1" height="1" fill="black" />
<rect x="3" y="6" width="1" height="1" fill="white" />
<rect x="3" y="7" width="1" height="1" fill="black" />
<rect x="4" y="0" width="1" height="1" fill="black" />
<rect x="4" y="1" width="1" height="1" fill="white" />
<rect x="4" y="2" width="1" height="1" fill="black" />
<rect x="4" y="3" width="1" height="1" fill="white" />
<rect x="4" y="4" width="1" height="1" fill="black" />
<rect x="4" y="5" width="1" height="1" fill="white" />
<rect x="4" y="6" width="1" height="1" fill="black" />
<rect x="4" y="7" width="1" height="1" fill="white" />
<rect x="5" y="0" width="1" height="1" fill="white" />
<rect x="5" y="1" width="1" height="1" fill="black" />
<rect x="5" y="2" width="1" height="1" fill="white" />
<rect x="5" y="3" width="1" height="1" fill="black" />
<rect x="5" y="4" width="1" height="1" fill="white" />
<rect x="5" y="5" width="1" height="1" fill="black" />
<rect x="5" y="6" width="1" height="1" fill="white" />
<rect x="5" y="7" width="1" height="1" fill="black" />
<rect x="6" y="0" width="1" height="1" fill="black" />
<rect x="6" y="1" width="1" height="1" fill="white" />
<rect x="6" y="2" width="1" height="1" fill="black" />
<rect x="6" y="3" width="1" height="1" fill="white" />
<rect x="6" y="4" width="1" height="1" fill="black" />
<rect x="6" y="5" width="1" height="1" fill="white" />
<rect x="6" y="6" width="1" height="1" fill="black" />
<rect x="6" y="7" width="1" height="1" fill="white" />
<rect x="7" y="0" width="1" height="1" fill="white" />
<rect x="7" y="1" width="1" height="1" fill="black" />
<rect x="7" y="2" width="1" height="1" fill="white" />
<rect x="7" y="3" width="1" height="1" fill="black" />
<rect x="7" y="4" width="1" height="1" fill="white" />
<rect x="7" y="5" width="1" height="1" fill="black" />
<rect x="7" y="6" width="1" height="1" fill="white" />
<rect x="7" y="7" width="1" height="1" fill="black" />
 </g>

 <g transform="translate(0.5,0.5)">

 <circle cx="2" cy="0" r="0.15" stroke="none" fill="red" />

 <text id="eins" x="2" y="0" style="font-size:0.3px; font-family:Arial" fill="red" transform="translate(-0.35,0.1)">
S
</text>

<circle cx="2" cy="0" r="0.1" stroke="none" fill="green" />

<text id="eins" x="2" y="0" style="font-size:0.3px; font-family:Arial" fill="green" transform="translate(0.12,0.1)">
E
</text>

<polyline points="2,0 0,1 1,3 0,5 1,7 3,6 5,7 7,6 6,4 7,2 6,0 4,1 6,2 7,0 5,1 3,0 1,1 0,3 1,5 0,7 2,6 4,7 6,6 7,4 5,5 6,7 7,5 6,3 7,1 5,0 3,1 1,0 2,2 4,3 2,4 4,5 3,7 1,6 0,4 2,5 0,6 2,7 4,6 3,4 5,3 3,2 4,0 6,1 7,3 5,2 3,3 5,4 4,2 2,3 4,4 6,5 7,7 5,6 3,5 1,4 0,2 2,1 0,0 1,2 2,0 " stroke="blue" stroke-width="0.05" fill="none" />

</g>
</g>
</svg>
